<?xml version="1.0" encoding="utf-8"?>
<!-- Generator: Adobe Illustrator 21.0.2, SVG Export Plug-In . SVG Version: 6.00 Build 0)  -->
<svg version="1.1" id="Слой_1" xmlns="http://www.w3.org/2000/svg" xmlns:xlink="http://www.w3.org/1999/xlink" x="0px" y="0px"
	 viewBox="0 0 1417.3 1417.3" style="enable-background:new 0 0 1417.3 1417.3;" xml:space="preserve">
<style type="text/css">
	.st0{font-family:'Microsoft-Yi-Baiti';}
	.st1{font-size:300px;}
	.st2{fill:#8F8F8F;}
	.st3{fill:#0A0A0A;}
	.st4{fill:#FEFEFE;}
</style>
<g>
	<text transform="matrix(1 0 0 1 329 795.896)" class="st0 st1">Klin en</text>
	<path class="st2" d="M809,753.1c0.6-11.7,1.4-23.5-0.7-35.1c1,1.2,2.1,0.5,3.3,0.3c10.6-1.9,18,4.9,18.5,14.8
		c0.1,1.5,1.1,1.9,1.8,2.7c-2.1-0.2-4,0.1-5.1,2.3c-1.3,2.6-1.4,4.7,1.8,5.9c-1.1,0-2,0.5-2.8,1.4c-3.9,3.8-8.6,5.8-14,4.8
		C808.8,749.7,810.3,752.6,809,753.1z"/>
	<path d="M751.6,794.3c-5.3-0.6-10.3-2.2-15.3-4.2c-4.2-1.7-8-4.1-11.6-6.7c-3.6-2.7-6.8-5.9-9.8-9.3c-3-3.5-5.5-7.4-7.6-11.5
		c-2.3-4.5-4-9.3-4.9-14.3c-0.2-1.2-0.5-2.5-0.6-3.7c-0.4-0.6,0-1.2-0.3-1.8c0-0.3,0-0.5,0-0.8c-0.4-1.1,0.1-2.2-0.3-3.3
		c0.1-1.3,0.1-2.6,0-3.9c0.4-1.1-0.1-2.2,0.3-3.3c0-0.3,0-0.5,0-0.8c0.3-0.6-0.1-1.2,0.3-1.8c0.5-5.1,2-10,4-14.7
		c1.7-4.1,3.9-8,6.5-11.6c2.9-3.9,6.2-7.4,10-10.6c3.5-2.9,7.2-5.3,11.2-7.4c5.6-2.8,11.6-4.5,17.8-5.5c0.5-0.3,1,0,1.5-0.3
		c0.3,0,0.5,0,0.8,0c0.8-0.4,1.8,0.1,2.6-0.3c2.2,0,4.4,0,6.6,0c0.8,0.3,1.6-0.1,2.4,0.3c0.3,0,0.5,0,0.8,0c0.5,0.3,1-0.1,1.5,0.3
		c6.7,1.1,13.1,3,19.1,6.3c3.9,2.1,7.5,4.7,10.9,7.6c6.7,5.8,11.7,12.8,15.2,20.9c1.4,3.3,2.7,7.6,3.3,10.2
		c0.8,3.5,1.6,9.3,1.5,14.4c-0.2,6.4-1.5,12.7-3.8,18.7c-2.5,6.5-6,12.4-10.7,17.7c-6.3,7.2-13.9,12.4-22.7,15.9
		c-4.2,1.7-8.6,2.7-13.1,3.4c-0.5,0.3-1,0-1.5,0.3c-0.4,0-0.7,0-1.1,0c-0.7,0.4-1.6-0.1-2.3,0.3c-1.9,0-3.8,0-5.7,0
		c-0.8-0.3-1.6,0.1-2.4-0.3c-0.3,0-0.7,0-1,0C752.7,794.3,752.1,794.6,751.6,794.3z"/>
	<path class="st3" d="M836.7,1044.7c-2.8,0-5-2.4-4.8-5.2c0.1-1.7,0.2-3.4,0.2-5.1c0-87.4-0.1-181.4-0.1-269.6
		c0-4.8,1.5-14.3-5.8-14.6c-6.2-0.3-6.1-3.6-5-9.3c1.3-6.5,5.7-13.8,12.2-6.6c7.2,8.6,8.1,18.5,8.1,29.4c0,18.3-0.1,172.3-0.1,269.9
		c0,2,0.1,4,0.2,6C841.7,1042.3,839.5,1044.7,836.7,1044.7L836.7,1044.7z"/>
	<path class="st4" d="M759.5,689c26.1,0,47.1,21,47.1,47c0,26.2-21,47-47.4,47c-25.7,0-46.7-21.1-46.7-47
		C712.5,710,733.5,689,759.5,689z"/>
</g>
</svg>
